<svg width="129" height="58" viewBox="0 0 129 58" fill="none" xmlns="http://www.w3.org/2000/svg">
<path d="M3.67383 43V17.4062H14.1504C16.5527 17.4062 18.4512 17.793 19.8457 18.5664C21.252 19.3398 22.2539 20.3828 22.8516 21.6953C23.4492 23.0078 23.748 24.4844 23.748 26.125V34.3691C23.748 36.1621 23.4141 37.7031 22.7461 38.9922C22.0898 40.2812 21.0586 41.2715 19.6523 41.9629C18.2461 42.6543 16.418 43 14.168 43H3.67383ZM7.76953 39.8887H13.7812C15.0117 39.8887 16.0605 39.7539 16.9277 39.4844C17.8066 39.2031 18.4805 38.6992 18.9492 37.9727C19.418 37.2344 19.6523 36.1855 19.6523 34.8262V25.7559C19.6523 24.3965 19.4121 23.3418 18.9316 22.5918C18.4629 21.8301 17.7891 21.2969 16.9102 20.9922C16.0312 20.6875 14.9883 20.5352 13.7812 20.5352H7.76953V39.8887ZM40.7637 43.4043C38.5723 43.4043 36.7676 43.1816 35.3496 42.7363C33.9434 42.291 32.8477 41.6641 32.0625 40.8555C31.2773 40.0469 30.7266 39.0918 30.4102 37.9902C30.0938 36.8887 29.9355 35.6816 29.9355 34.3691V26.3359C29.9355 25 30.0879 23.7695 30.3926 22.6445C30.709 21.5078 31.2598 20.5176 32.0449 19.6738C32.8301 18.8301 33.9258 18.1738 35.332 17.7051C36.75 17.2363 38.5605 17.002 40.7637 17.002C42.873 17.002 44.6074 17.248 45.9668 17.7402C47.3379 18.2324 48.4043 18.918 49.166 19.7969C49.9277 20.6641 50.4609 21.6777 50.7656 22.8379C51.082 23.9863 51.2402 25.2285 51.2402 26.5645V34.1055C51.2402 35.4062 51.082 36.6191 50.7656 37.7441C50.4609 38.8691 49.9219 39.8594 49.1484 40.7148C48.3867 41.5586 47.3203 42.2207 45.9492 42.7012C44.5898 43.1699 42.8613 43.4043 40.7637 43.4043ZM40.7637 40.1523C42.2051 40.1523 43.3945 40.0059 44.332 39.7129C45.2812 39.4199 45.9844 38.8984 46.4414 38.1484C46.8984 37.3984 47.127 36.3262 47.127 34.9316V25.668C47.127 24.2734 46.8926 23.1836 46.4238 22.3984C45.9668 21.6133 45.2637 21.0625 44.3145 20.7461C43.377 20.4297 42.1934 20.2715 40.7637 20.2715C39.334 20.2715 38.1211 20.4297 37.125 20.7461C36.1289 21.0625 35.3672 21.6133 34.8398 22.3984C34.3125 23.1719 34.0488 24.2617 34.0488 25.668V34.9316C34.0488 36.3262 34.3066 37.3984 34.8223 38.1484C35.3496 38.8984 36.1113 39.4199 37.1074 39.7129C38.1035 40.0059 39.3223 40.1523 40.7637 40.1523ZM58.0254 17.4062H62.1211V39.8184H73.3359V43H58.0254V17.4062ZM77.7832 39.9414H82.5996V20.4473H77.7832V17.4062H91.4766V20.4473H86.6953V39.9414H91.4766V43H77.7832V39.9414ZM108.123 43.4043C105.943 43.4043 104.168 43.1875 102.797 42.7539C101.426 42.3086 100.371 41.6875 99.6328 40.8906C98.9062 40.0938 98.4023 39.1504 98.1211 38.0605C97.8516 36.9707 97.7168 35.7754 97.7168 34.4746V26.2656C97.7168 24.9297 97.8457 23.6992 98.1035 22.5742C98.373 21.4375 98.8711 20.4531 99.5977 19.6211C100.336 18.7891 101.391 18.1445 102.762 17.6875C104.133 17.2305 105.914 17.002 108.105 17.002C110.121 17.002 111.768 17.1953 113.045 17.582C114.334 17.957 115.324 18.5078 116.016 19.2344C116.707 19.9609 117.188 20.8457 117.457 21.8887C117.727 22.9199 117.861 24.0918 117.861 25.4043V25.668L113.906 26.0547V25.2988C113.906 23.8691 113.725 22.7969 113.361 22.082C112.998 21.3555 112.395 20.875 111.551 20.6406C110.707 20.3945 109.559 20.2715 108.105 20.2715C106.688 20.2715 105.51 20.4238 104.572 20.7285C103.646 21.0332 102.955 21.5723 102.498 22.3457C102.041 23.1191 101.812 24.209 101.812 25.6152V35.002C101.812 36.3965 102.047 37.4688 102.516 38.2188C102.984 38.957 103.688 39.4668 104.625 39.748C105.562 40.0176 106.746 40.1523 108.176 40.1523C109.605 40.1523 110.736 40.0469 111.568 39.8359C112.412 39.625 113.01 39.1797 113.361 38.5C113.725 37.8086 113.906 36.7539 113.906 35.3359V34.7734H117.861V35.0547C117.861 36.332 117.738 37.4863 117.492 38.5176C117.258 39.5371 116.807 40.416 116.139 41.1543C115.471 41.8809 114.492 42.4375 113.203 42.8242C111.926 43.2109 110.232 43.4043 108.123 43.4043Z" fill="white"/>
<path d="M123.41 26.285C122.78 26.285 122.185 26.165 121.625 25.925C121.075 25.685 120.59 25.355 120.17 24.935C119.76 24.515 119.435 24.03 119.195 23.48C118.955 22.92 118.835 22.325 118.835 21.695C118.835 21.055 118.955 20.46 119.195 19.91C119.435 19.36 119.765 18.875 120.185 18.455C120.605 18.035 121.09 17.705 121.64 17.465C122.2 17.225 122.795 17.105 123.425 17.105C124.055 17.105 124.645 17.225 125.195 17.465C125.755 17.705 126.245 18.035 126.665 18.455C127.085 18.875 127.41 19.36 127.64 19.91C127.88 20.46 128 21.055 128 21.695C128 22.325 127.88 22.92 127.64 23.48C127.41 24.03 127.08 24.515 126.65 24.935C126.23 25.355 125.74 25.685 125.18 25.925C124.63 26.165 124.04 26.285 123.41 26.285ZM123.62 24.38C123.12 24.38 122.665 24.255 122.255 24.005C121.845 23.755 121.52 23.43 121.28 23.03C121.04 22.62 120.92 22.18 120.92 21.71C120.92 21.21 121.05 20.765 121.31 20.375C121.58 19.985 121.94 19.68 122.39 19.46C122.85 19.23 123.355 19.115 123.905 19.115C124.115 19.115 124.34 19.14 124.58 19.19C124.82 19.23 125.03 19.285 125.21 19.355C125.29 19.375 125.345 19.395 125.375 19.415C125.405 19.435 125.425 19.485 125.435 19.565C125.465 19.715 125.48 19.88 125.48 20.06C125.49 20.24 125.49 20.395 125.48 20.525C125.48 20.575 125.46 20.625 125.42 20.675C125.38 20.725 125.335 20.745 125.285 20.735C125.245 20.735 125.205 20.715 125.165 20.675C125.125 20.625 125.095 20.57 125.075 20.51C125.035 20.4 124.985 20.3 124.925 20.21C124.875 20.12 124.8 20.04 124.7 19.97C124.59 19.88 124.46 19.81 124.31 19.76C124.16 19.7 123.99 19.67 123.8 19.67C123.29 19.67 122.89 19.865 122.6 20.255C122.32 20.635 122.18 21.095 122.18 21.635C122.18 22.015 122.24 22.375 122.36 22.715C122.48 23.045 122.66 23.315 122.9 23.525C123.15 23.725 123.465 23.825 123.845 23.825C124.145 23.825 124.405 23.775 124.625 23.675C124.855 23.565 125.035 23.375 125.165 23.105C125.205 23.015 125.25 22.955 125.3 22.925C125.36 22.895 125.41 22.88 125.45 22.88C125.52 22.89 125.555 22.965 125.555 23.105C125.555 23.215 125.53 23.34 125.48 23.48C125.44 23.62 125.395 23.755 125.345 23.885C125.305 23.965 125.275 24.01 125.255 24.02C125.235 24.02 125.185 24.05 125.105 24.11C124.925 24.19 124.705 24.255 124.445 24.305C124.185 24.355 123.91 24.38 123.62 24.38ZM123.41 25.685C123.95 25.685 124.455 25.58 124.925 25.37C125.405 25.16 125.825 24.875 126.185 24.515C126.545 24.145 126.825 23.72 127.025 23.24C127.225 22.75 127.325 22.235 127.325 21.695C127.325 21.165 127.225 20.66 127.025 20.18C126.825 19.7 126.545 19.28 126.185 18.92C125.825 18.55 125.41 18.26 124.94 18.05C124.47 17.84 123.965 17.735 123.425 17.735C122.885 17.735 122.38 17.84 121.91 18.05C121.44 18.26 121.025 18.55 120.665 18.92C120.305 19.28 120.025 19.7 119.825 20.18C119.625 20.66 119.525 21.165 119.525 21.695C119.525 22.235 119.62 22.75 119.81 23.24C120.01 23.72 120.29 24.145 120.65 24.515C121.01 24.875 121.425 25.16 121.895 25.37C122.365 25.58 122.87 25.685 123.41 25.685Z" fill="white"/>
</svg>
